<?xml version="1.0" encoding="UTF-8"?>
<svg width="56px" height="66px" viewBox="0 0 56 66" version="1.1" xmlns="http://www.w3.org/2000/svg" xmlns:xlink="http://www.w3.org/1999/xlink">
    <title>my_icon_1</title>
    <g id="页面-1" stroke="none" stroke-width="1" fill="none" fill-rule="evenodd">
        <g id="5我" transform="translate(-65.000000, -642.000000)" fill-rule="nonzero">
            <g id="编组-2" transform="translate(40.000000, 642.000000)">
                <g id="编组" transform="translate(25.000000, 0.000000)">
                    <path d="M25.9509091,0.435957766 L3.04181823,10.5987123 C1.19409767,11.4188396 0.000847809152,13.2634904 0,15.301074 L0,31.2287184 C0,40.9841918 4.32218181,49.7015481 11.9381819,55.709265 L25.0650909,65.0600269 C26.8247516,66.3133244 29.1752484,66.3133244 30.9349091,65.0600269 L43.9625454,55.7837833 C51.6778182,49.7002634 56,40.982907 56,31.2287184 L56,15.3023588 C56,13.2638428 54.8067476,11.4179301 52.9581818,10.5974275 L30.0490909,0.434673018 C28.743352,-0.144891006 27.256648,-0.144891006 25.9509091,0.434673018 L25.9509091,0.435957766 Z M5.09090911,15.3023588 L28,5.13960433 L50.9090909,15.3023588 L50.9090909,31.2287184 C50.9090909,39.3820483 47.3238182,46.6141779 40.9270909,51.6595808 L28,60.8600214 L14.9723636,51.5837777 C8.67618184,46.6103235 5.09090911,39.3794788 5.09090911,31.2261488 L5.09090911,15.3023588 Z" id="形状" fill="#333333"></path>
                    <path d="M40.7272727,21.6055792 L44.3265454,25.2389887 L27.7810909,41.9413665 C26.7870913,42.9444906 25.1758178,42.9444906 24.1818182,41.9413665 L14,31.6629802 L17.5992727,28.0295706 L25.9814546,36.4899674 L40.7272727,21.6055792 Z" id="路径" fill="#00CC66"></path>
                </g>
            </g>
        </g>
    </g>
</svg>