<?xml version="1.0" encoding="UTF-8"?>
<svg width="36px" height="33px" viewBox="0 0 36 33" version="1.1" xmlns="http://www.w3.org/2000/svg" xmlns:xlink="http://www.w3.org/1999/xlink">
    <title>icon_shouc</title>
    <g id="页面-1" stroke="none" stroke-width="1" fill="none" fill-rule="evenodd">
        <g id="1商户详情-动态" transform="translate(-465.000000, -1230.000000)" fill="#000000" fill-rule="nonzero">
            <g id="编组-8" transform="translate(30.000000, 787.000000)">
                <g id="编组" transform="translate(435.000000, 443.000000)">
                    <path d="M24.57225,0 C31.53645,0 36,5.53420022 36,12.9824042 C36,18.7623211 30.7224,25.1277662 20.32425,32.2803074 C18.9260291,33.2398975 17.073971,33.2398975 15.67575,32.2803074 C5.27760001,25.1277662 0,18.7623211 0,12.9824042 C0,5.53420022 4.46355001,0 11.42775,0 C13.9428,0 15.64875,0.870934164 18,2.84692458 C20.3517,0.871380125 22.0572,0 24.57225,0 Z M24.57225,2.64000526 C22.824,2.64000526 21.6081,3.27503354 19.638,4.94109092 C19.54665,5.01823971 19.0305,5.45838923 18.8811,5.58414624 C18.3726021,6.01083558 17.6273979,6.01083558 17.1189,5.58414624 C16.9695,5.45794327 16.45335,5.01823971 16.362,4.94109092 C14.3919,3.27503354 13.176,2.64000526 11.42775,2.64000526 C6.11100003,2.64000526 2.7,6.85331095 2.7,12.933796 C2.7,17.5703052 7.48935003,23.3248032 17.2251,29.9966137 C17.6916034,30.3154604 18.3083966,30.3154604 18.7749,29.9966137 C28.51065,23.3252491 33.3,17.5703052 33.3,12.933796 C33.3,6.85331095 29.889,2.64000526 24.57225,2.64000526 Z" id="形状"></path>
                </g>
            </g>
        </g>
    </g>
</svg>