<?xml version="1.0" encoding="UTF-8"?>
<svg width="48px" height="61px" viewBox="0 0 48 61" version="1.1" xmlns="http://www.w3.org/2000/svg" xmlns:xlink="http://www.w3.org/1999/xlink">
    <title>my_icon_4</title>
    <g id="页面-1" stroke="none" stroke-width="1" fill="none" fill-rule="evenodd">
        <g id="5我" transform="translate(-635.000000, -644.000000)" fill-rule="nonzero">
            <g id="编组-2备份-3" transform="translate(605.000000, 644.000000)">
                <g id="编组" transform="translate(30.000000, 0.000000)">
                    <path d="M40.4177632,5.98108217 L35.5,5.98108217 L35.5,2.70821595 C35.5259108,2.10681478 35.2187804,1.53970773 34.7001427,1.23130331 C34.181505,0.922898896 33.5349424,0.922898896 33.0163047,1.23130331 C32.497667,1.53970773 32.1905366,2.10681478 32.2164474,2.70821595 L32.2164474,5.98108217 L15.7896053,5.98108217 L15.7896053,2.70821595 C15.7896053,1.80277295 15.053202,1.06876637 14.1448026,1.06876637 C13.2364032,1.06876637 12.5,1.80277295 12.5,2.70821595 L12.5,5.98108217 L7.58223684,5.98108217 C3.95149039,5.97774791 1.005011,8.90788643 1,12.5268146 L1,53.4542329 C1.0066669,57.0677623 3.9448008,59.994985 7.57013158,59.9999828 L40.4056579,59.9999828 C42.1510977,60.0039696 43.8266005,59.3164846 45.0633676,58.0888343 C46.3001346,56.8611839 46.9967931,55.1939938 47,53.4542329 L47,12.5268146 C46.994989,8.90788643 44.0485096,5.97774791 40.4177632,5.98108217 L40.4177632,5.98108217 Z M43.7043421,53.4542329 C43.7010066,55.2615856 42.2310194,56.7254395 40.4177632,56.7270991 L7.58223684,56.7270991 C5.76898061,56.7254395 4.29899339,55.2615856 4.29565789,53.4542329 L4.29565789,12.5268146 C4.29899339,10.719462 5.76898061,9.25560803 7.58223684,9.25394839 L12.5,9.25394839 L12.5,12.5268146 C12.4740892,13.1282158 12.7812196,13.6953228 13.2998573,14.0037273 C13.818495,14.3121317 14.4650576,14.3121317 14.9836953,14.0037273 C15.502333,13.6953228 15.8094634,13.1282158 15.7835526,12.5268146 L15.7835526,9.25394839 L32.2043421,9.25394839 L32.2043421,12.5268146 C32.1784313,13.1282158 32.4855617,13.6953228 33.0041994,14.0037273 C33.5228371,14.3121317 34.1693997,14.3121317 34.6880374,14.0037273 C35.2066751,13.6953228 35.5138055,13.1282158 35.4878947,12.5268146 L35.4878947,9.25394839 L40.4117105,9.25394839 C42.2249668,9.25560803 43.694954,10.719462 43.6982895,12.5268146 L43.7043421,53.4542329 Z" id="形状" stroke="#333333" fill="#333333"></path>
                    <path d="M37.1342105,33.8019533 L10.8657895,33.8019533 C10.2624246,33.7761268 9.69346589,34.0822576 9.38405449,34.5992074 C9.07464308,35.1161572 9.07464308,35.7606155 9.38405449,36.2775653 C9.69346589,36.7945151 10.2624246,37.1006459 10.8657895,37.0748195 L37.1342105,37.0748195 C38.0135426,37.0371806 38.7069959,36.3156645 38.7069959,35.4383864 C38.7069959,34.5611083 38.0135426,33.8395922 37.1342105,33.8019533 L37.1342105,33.8019533 Z M37.1342105,23.9833546 L10.8657895,23.9833546 C9.98645739,24.0209936 9.29300407,24.7425096 9.29300407,25.6197877 C9.29300407,26.4970658 9.98645739,27.2185819 10.8657895,27.2562208 L37.1342105,27.2562208 C37.7375754,27.2820473 38.3065341,26.9759165 38.6159455,26.4589667 C38.9253569,25.9420169 38.9253569,25.2975586 38.6159455,24.7806088 C38.3065341,24.263659 37.7375754,23.9575282 37.1342105,23.9833546 L37.1342105,23.9833546 Z M37.1342105,43.6205519 L10.8657895,43.6205519 C10.2624246,43.5947255 9.69346589,43.9008563 9.38405449,44.4178061 C9.07464308,44.9347559 9.07464308,45.5792142 9.38405449,46.096164 C9.69346589,46.6131138 10.2624246,46.9192446 10.8657895,46.8934182 L37.1342105,46.8934182 C37.7375754,46.9192446 38.3065341,46.6131138 38.6159455,46.096164 C38.9253569,45.5792142 38.9253569,44.9347559 38.6159455,44.4178061 C38.3065341,43.9008563 37.7375754,43.5947255 37.1342105,43.6205519 L37.1342105,43.6205519 Z" id="形状" stroke="#00CC66" fill="#00CC66"></path>
                </g>
            </g>
        </g>
    </g>
</svg>