<?xml version="1.0" encoding="UTF-8"?>
<svg width="51px" height="56px" viewBox="0 0 51 56" version="1.1" xmlns="http://www.w3.org/2000/svg" xmlns:xlink="http://www.w3.org/1999/xlink">
    <title>my_icon_3</title>
    <g id="页面-1" stroke="none" stroke-width="1" fill="none" fill-rule="evenodd">
        <g id="5我" transform="translate(-442.000000, -647.000000)" fill-rule="nonzero">
            <g id="编组-2备份-2" transform="translate(417.000000, 647.000000)">
                <g id="编组" transform="translate(25.000000, 0.000000)">
                    <path d="M25.5,0 C32.58392,0 38.3265717,5.93811806 38.3265717,13.2631579 L46.3075497,13.2631579 C47.4309792,13.2635137 48.3624688,14.1629681 48.439611,15.3218947 L50.994949,53.6376842 C51.035624,54.2487544 50.8292744,54.8498828 50.4251199,55.2976844 C50.0209655,55.745486 49.4552414,56 48.8628878,56 L2.13711223,56 C1.54475865,56 0.979034519,55.745486 0.574880087,55.2976844 C0.170725655,54.8498828 -0.0356240169,54.2487544 0.00505095263,53.6376842 L2.5603891,15.3218947 C2.63753123,14.1629681 3.56902083,13.2635137 4.69245037,13.2631579 L12.6734283,13.2631579 C12.6734283,5.93811806 18.41608,0 25.5,0 Z M42.7203851,17.6842098 L8.27961493,17.6842098 C7.60401879,17.6834917 7.02076509,18.1733616 6.88294376,18.8572632 L6.86014099,19.0296842 L4.25634693,49.9770526 C4.18946969,50.770954 4.74504824,51.4760089 5.51050059,51.5686316 L5.67724602,51.5789475 L45.322754,51.5789475 C46.0934572,51.5793061 46.7248076,50.9460511 46.7479287,50.1494737 L46.742228,49.9770526 L44.1398591,19.0296842 C44.075572,18.2684982 43.4593168,17.6842098 42.7203851,17.6842098 L42.7203851,17.6842098 Z M25.5,4.42105264 C20.7773867,4.42105264 16.9489522,8.37979801 16.9489522,13.2631579 L34.0510478,13.2631579 C34.0510478,8.37979801 30.2226133,4.42105264 25.5,4.42105264 L25.5,4.42105264 Z" id="形状" fill="#333333"></path>
                    <path d="M13.9090547,33.0282097 C14.6793046,33.0275525 15.390343,33.4554107 15.7703328,34.1482106 C17.8410624,37.6543154 21.5284265,39.7919368 25.5014252,39.7894737 C29.4747088,39.7916233 33.1621365,37.6534066 35.2325176,34.1467368 C35.6311945,33.4728211 36.3472821,33.0700284 37.1110373,33.0900868 C37.8747925,33.1101452 38.5701826,33.5500074 38.9352609,34.2439815 C39.3003392,34.9379557 39.2796416,35.7806106 38.8809647,36.4545263 C36.0331659,41.2758374 30.9620759,44.214877 25.4985748,44.2105312 C20.036596,44.2133351 14.9674664,41.2744926 12.1204605,36.4545263 C11.687996,35.7754849 11.6509373,34.9057679 12.0239701,34.190028 C12.3970029,33.474288 13.1199052,33.0280733 13.9062044,33.0282097 L13.9090547,33.0282097 Z" id="路径" fill="#00CC66"></path>
                </g>
            </g>
        </g>
    </g>
</svg>