<svg
   xmlns:dc="http://purl.org/dc/elements/1.1/"
   xmlns:cc="http://creativecommons.org/ns#"
   xmlns:rdf="http://www.w3.org/1999/02/22-rdf-syntax-ns#"
   xmlns:svg="http://www.w3.org/2000/svg"
   xmlns="http://www.w3.org/2000/svg"
   id="svg106"
   version="1.1"
   viewBox="0 0 380 280">
  <metadata
     id="metadata112">
    <rdf:RDF>
      <cc:Work
         rdf:about="">
        <dc:format>image/svg+xml</dc:format>
        <dc:type
           rdf:resource="http://purl.org/dc/dcmitype/StillImage" />
      </cc:Work>
    </rdf:RDF>
  </metadata>
  <defs
     id="defs110" />
  <svg
     height="100%"
     width="100%"
     id="svg9"
     version="1.1"
     viewBox="0 0 380 280">
    <linearGradient
       y2="0"
       x2="0"
       y1="1"
       x1="1"
       id="icon_color_gradient">
      <stop
         id="stop2"
         stop-opacity="1"
         stop-color="#7fff94"
         offset="0%" />
      <stop
         id="stop4"
         stop-opacity="1"
         stop-color="#02e0f3"
         offset="40%" />
      <stop
         id="stop6"
         stop-opacity="1"
         stop-color="#2caabd"
         offset="100%" />
    </linearGradient>
  </svg>
  <svg
     id="svg17"
     version="1.1"
     height="64"
     width="36.861679"
     y="100"
     x="93.550407">
    <g
       style="fill:url(#icon_color_gradient)"
       id="g15">
      <svg
         height="100%"
         width="100%"
         id="svg13"
         version="1.1"
         viewBox="0 0 254 441">
        <path
           style="fill-rule:evenodd;stroke:none"
           id="path11"
           d="m 117.364,1.443 c -5.881,2.559 -24.856,13.799 -27.74,16.432 -3.429,3.13 -6.572,9.528 -6.602,13.443 -0.012,1.55 2.224,12.125 4.97,23.5 2.746,11.375 5.229,21.695 5.519,22.932 0.401,1.712 1.24,2.25 3.508,2.25 H 100 v 7 c 0,3.85 0.243,7 0.54,7 0.297,0 2.24,-0.868 4.319,-1.928 5.924,-3.023 14.012,-9.83 17.417,-14.661 3.63,-5.151 6.656,-5.776 8.776,-1.814 2.071,3.87 11.836,12.516 17.75,15.715 L 154,94.125 V 87.062 80 h 2.933 c 1.932,0 3.106,-0.597 3.442,-1.75 C 162,72.67 170.999,33.671 170.994,32.229 170.982,28.35 168.713,22.742 165.824,19.453 164.099,17.488 156.592,12.47 148.658,7.98 134.681,0.07 134.495,0 127.529,0.039 c -3.866,0.022 -8.44,0.653 -10.165,1.404 m 7.136,84.754 c -1.1,0.625 -4.025,2.909 -6.5,5.076 -6.518,5.706 -16.316,10.293 -26.037,12.188 -4.655,0.908 -10.686,2.087 -13.402,2.621 -7.344,1.443 -21.993,8.806 -31.061,15.613 -16.497,12.382 -29.152,27.471 -37.524,44.739 -6.051,12.481 -8.888,23.09 -9.66,36.128 l -0.596,10.063 4.933,4.937 c 9.37,9.38 12.738,20.185 12.758,40.938 0.01,10 -0.601,17.429 -2.139,26 -4.297,23.956 -13.731,99.546 -12.644,101.322 1.991,3.255 21.018,18.553 32.872,26.431 13.862,9.211 29.307,17.211 41.623,21.558 8.439,2.978 28.61,7.789 29.39,7.009 0.732,-0.732 -10.52,-142.282 -11.63,-146.295 -0.604,-2.187 -2.737,-5.609 -4.741,-7.606 -3.29,-3.279 -4.947,-3.942 -17.142,-6.865 -16.53,-3.96 -21.294,-5.969 -26.692,-11.253 -5.389,-5.276 -6.498,-8.04 -15.888,-39.618 -10.553,-35.487 -10.488,-35.568 16.498,-20.728 9.547,5.25 18.025,9.545 18.841,9.545 0.816,0 6.338,-2.522 12.272,-5.605 12.494,-6.492 28.255,-18.006 40.452,-29.55 l 8.542,-8.086 7.738,7.38 c 8.635,8.238 21.838,18.753 30.357,24.178 7.052,4.49 21.252,11.686 23.037,11.674 0.739,-0.005 9.218,-4.298 18.843,-9.54 11.162,-6.078 18.369,-9.425 19.899,-9.241 5.097,0.616 4.923,2.038 -3.836,31.438 -8.588,28.827 -10.59,33.643 -16.228,39.051 -4.565,4.379 -10.036,6.57 -25.835,10.351 -12.695,3.037 -13.748,3.477 -17.664,7.372 -2.69,2.676 -4.373,5.37 -4.754,7.61 -0.829,4.867 -11.662,145.221 -11.242,145.642 0.842,0.841 17.623,-3.077 26.68,-6.229 24.075,-8.38 46.629,-21.719 70.73,-41.834 5.498,-4.588 7.25,-6.661 7.248,-8.581 -0.002,-4.036 -11.773,-92.262 -13.517,-101.32 -5.662,-29.399 -1.172,-54.976 11.58,-65.957 l 4.938,-4.253 -0.118,-8 c -0.078,-5.316 -0.345,-6.994 -0.796,-5 -0.559,2.477 -0.79,1.866 -1.321,-3.508 -3.181,-32.176 -31.487,-69.745 -64.042,-85.001 -8.467,-3.968 -11.801,-4.887 -25.574,-7.053 -8.641,-1.359 -20.626,-6.976 -27.235,-12.764 -3.838,-3.361 -8.1,-6.24 -9.097,-6.144 -0.174,0.017 -1.216,0.542 -2.316,1.167 M 0.349,206 c 0,4.675 0.173,6.588 0.383,4.25 0.211,-2.338 0.211,-6.162 0,-8.5 -0.21,-2.338 -0.383,-0.425 -0.383,4.25 M 108,292.802 v 41.937 l 6.823,9.381 c 8.038,11.049 10.861,13.117 14.854,10.88 1.472,-0.825 5.747,-5.721 9.5,-10.88 L 146,334.739 V 292.87 c 0,-23.029 -0.278,-41.87 -0.619,-41.87 -0.34,0 -4.561,3.6 -9.381,8 -4.82,4.4 -9.168,8 -9.663,8 -0.495,0 -3.586,-2.734 -6.868,-6.076 -3.283,-3.343 -7.206,-6.973 -8.719,-8.069 L 108,250.864 v 41.938" />
      </svg>
    </g>
  </svg>
  <g
     transform="translate(225,134.21562)"
     id="container">
    <g
       id="text19"
       style="font-size:40px;font-family:'IdeaFonts JueJiangHei70';fill:#58b9a8;fill-opacity:1"
       aria-label="邻">
      <path
         id="path114"
         style="font-size:40px;font-family:'IdeaFonts JueJiangHei70';fill:#58b9a8;fill-opacity:1"
         d="m -56.58,-5.1375 7.64,-12.88 h 6.04 l 7.88,12.88 h -4.68 l -6.2,-10.28 -6.04,10.28 z m 35.44,-8.92 -2.64,10.2 h 2.84 v 16.6 l -4.68,2.56 -1.84,-3.04 2.64,-1.36 v -11.6 h -3.6 l 3.32,-13.04 h -5.88 v 31.88 h -4.04 v -35.24 h 13.88 z m -27.52,5.28 h 4.04 l 2.08,5.84 h -4.16 z m 7,11.36 h -13.28 v -3.44 h 17.8 v 3.96 l -6.76,10.56 4.16,4.44 h -5.52 l -9.64,-10.76 h 5.08 l 2.92,3.12 z" />
    </g>
    <g
       id="text21"
       style="font-size:40px;font-family:'IdeaFonts JueJiangHei70';fill:#58b9a8;fill-opacity:1"
       aria-label="客">
      <path
         id="path117"
         style="font-size:40px;font-family:'IdeaFonts JueJiangHei70';fill:#58b9a8;fill-opacity:1"
         d="m 12,-12.3775 h -23.84 v 3.12 h -4.48 v -6.4 h 13.64 l -1.12,-2.36 h 5.52 l 1.16,2.36 h 13.64 v 6.4 H 12 Z m -4.2,17.6 -8.8,-3.64 -7.72,3.6 -8.48,-0.04 11.8,-5.4 -4.72,-1.92 -0.44,0.6 h -5.08 l 5.72,-8.2 h 5.16 l -0.88,1.24 h 19.2 v 3.28 l -10.4,4.88 14.16,5.6 z m -17.36,-8.24 h 6.04 l 2.24,0.88 7.12,-3.24 H -7.88 Z m 24.2,20.96 H -14.48 V 6.2625 H 14.64 Z M 9.88,9.4225 H -9.68 v 5.28 H 9.88 Z" />
    </g>
    <g
       id="text23"
       style="font-size:40px;font-family:'IdeaFonts JueJiangHei70';fill:#58b9a8;fill-opacity:1"
       aria-label="匠">
      <path
         id="path120"
         style="font-size:40px;font-family:'IdeaFonts JueJiangHei70';fill:#58b9a8;fill-opacity:1"
         d="m 21.74,-17.2975 h 34.04 v 3.28 h -29.4 v 28.32 H 55.7 v 3.28 H 21.74 Z m 27.2,17.8 v 12 h -4.4 v -12 h -9.4 v 12.04 h -5.08 l -1.36,-3.76 h 1.96 v -19.48 l 22.88,-0.96 v 3.36 l -18.4,0.8 v 4.68 h 19.8 v 3.32 z" />
    </g>
    <g
       id="text25"
       style="font-size:5.4000001px;font-family:'Alibaba PuHuiTi Medium';fill:#58b9a8;fill-opacity:1"
       aria-label="l">
      <path
         id="path123"
         style="font-size:5.4000001px;font-family:'Alibaba PuHuiTi Medium';fill:#58b9a8;fill-opacity:1"
         d="m -73.814553,28.941774 q -0.432,0 -0.6102,-0.1674 -0.1728,-0.1728 -0.1728,-0.5454 v -3.4236 h 0.675 v 3.2616 q 0,0.2052 0.054,0.27 0.0594,0.0648 0.1998,0.0648 0.0918,0 0.1782,-0.0216 v 0.5292 q -0.1458,0.0324 -0.324,0.0324 z" />
    </g>
    <g
       id="text27"
       style="font-size:5.4000001px;font-family:'Alibaba PuHuiTi Medium';fill:#58b9a8;fill-opacity:1"
       aria-label="i">
      <path
         id="path126"
         style="font-size:5.4000001px;font-family:'Alibaba PuHuiTi Medium';fill:#58b9a8;fill-opacity:1"
         d="m -71.322125,25.545174 q -0.1134,0 -0.189,-0.0108 -0.0702,-0.0108 -0.1188,-0.0486 -0.0432,-0.0432 -0.0594,-0.1134 -0.0162,-0.0702 -0.0162,-0.1944 0,-0.1242 0.0162,-0.1944 0.0162,-0.0756 0.0594,-0.108 0.0486,-0.0378 0.1188,-0.0486 0.0756,-0.0108 0.189,-0.0108 0.1134,0 0.1836,0.0108 0.0756,0.0108 0.1188,0.0486 0.0486,0.0324 0.0648,0.108 0.0162,0.0702 0.0162,0.1944 0,0.1242 -0.0162,0.1944 -0.0162,0.0702 -0.0648,0.1134 -0.0432,0.0378 -0.1188,0.0486 -0.0702,0.0108 -0.1836,0.0108 z m -0.3402,0.4482 h 0.675 v 2.916 h -0.675 z" />
    </g>
    <g
       id="text29"
       style="font-size:5.4000001px;font-family:'Alibaba PuHuiTi Medium';fill:#58b9a8;fill-opacity:1"
       aria-label="n">
      <path
         id="path129"
         style="font-size:5.4000001px;font-family:'Alibaba PuHuiTi Medium';fill:#58b9a8;fill-opacity:1"
         d="m -67.539772,25.939374 q 0.2754,0 0.459,0.0648 0.189,0.0648 0.3024,0.189 0.1134,0.1242 0.162,0.3078 0.0486,0.1782 0.0486,0.4104 v 1.998 h -0.675 v -1.809 q 0,-0.3078 -0.0972,-0.4536 -0.0972,-0.1458 -0.405,-0.1458 -0.2592,0 -0.4428,0.0972 -0.1782,0.0918 -0.27,0.3672 v 1.944 h -0.675 v -2.916 h 0.675 v 0.3672 q 0.1242,-0.2268 0.3672,-0.324 0.2484,-0.0972 0.5508,-0.0972 z" />
    </g>
    <g
       id="text31"
       style="font-size:5.4000001px;font-family:'Alibaba PuHuiTi Medium';fill:#58b9a8;fill-opacity:1" />
    <g
       id="text33"
       style="font-size:5.4000001px;font-family:'Alibaba PuHuiTi Medium';fill:#58b9a8;fill-opacity:1"
       aria-label="k">
      <path
         id="path133"
         style="font-size:5.4000001px;font-family:'Alibaba PuHuiTi Medium';fill:#58b9a8;fill-opacity:1"
         d="m -58.693926,28.909374 h -0.8316 l -0.8856,-1.2798 h -0.1404 v 1.2798 h -0.675 v -4.104 h 0.675 v 2.3004 h 0.1674 l 0.8424,-1.1124 h 0.7992 l -1.1016,1.3554 z" />
    </g>
    <g
       id="text35"
       style="font-size:5.4000001px;font-family:'Alibaba PuHuiTi Medium';fill:#58b9a8;fill-opacity:1"
       aria-label="e">
      <path
         id="path136"
         style="font-size:5.4000001px;font-family:'Alibaba PuHuiTi Medium';fill:#58b9a8;fill-opacity:1"
         d="m -54.304748,27.197574 q 0,0.108 -0.0108,0.2106 -0.0054,0.0972 -0.0162,0.1728 l -1.9116,0.1242 q 0.0108,0.3672 0.2052,0.54 0.1944,0.1728 0.6318,0.1728 0.1296,0 0.2646,-0.0162 0.1404,-0.0162 0.2646,-0.0432 0.1296,-0.0324 0.2376,-0.0648 0.108,-0.0378 0.1836,-0.0756 v 0.5508 q -0.1296,0.0756 -0.4212,0.135 -0.2916,0.0594 -0.648,0.0594 -0.3348,0 -0.594,-0.0702 -0.2592,-0.0702 -0.4374,-0.243 -0.1782,-0.1728 -0.2754,-0.4644 -0.0918,-0.2916 -0.0918,-0.7344 0,-0.4428 0.0918,-0.7344 0.0972,-0.2916 0.2754,-0.4644 0.1782,-0.1728 0.4374,-0.243 0.2592,-0.0702 0.594,-0.0702 0.378,0 0.6156,0.1026 0.2376,0.0972 0.3726,0.27 0.135,0.1728 0.1836,0.3996 0.0486,0.2268 0.0486,0.486 z m -0.6264,-0.0702 q 0,-0.135 -0.0216,-0.2538 -0.0162,-0.1242 -0.081,-0.216 -0.0648,-0.0918 -0.1836,-0.1458 -0.1134,-0.054 -0.3078,-0.054 -0.2052,0 -0.3402,0.0486 -0.135,0.0486 -0.216,0.1458 -0.081,0.0972 -0.1188,0.243 -0.0378,0.1404 -0.0432,0.3294 z" />
    </g>
    <g
       id="text37"
       style="font-size:5.4000001px;font-family:'Alibaba PuHuiTi Medium';fill:#58b9a8;fill-opacity:1" />
    <g
       id="text39"
       style="font-size:5.4000001px;font-family:'Alibaba PuHuiTi Medium';fill:#58b9a8;fill-opacity:1"
       aria-label="A">
      <path
         id="path140"
         style="font-size:5.4000001px;font-family:'Alibaba PuHuiTi Medium';fill:#58b9a8;fill-opacity:1"
         d="m -46.856826,27.915774 h -1.566001 l -0.3564,0.9936 h -0.729 l 1.404,-3.7476 h 0.950401 l 1.3932,3.7476 h -0.7506 z m -0.2106,-0.594 -0.5346,-1.5282 h -0.0648 l -0.545401,1.5282 z" />
    </g>
    <g
       id="text41"
       style="font-size:5.4000001px;font-family:'Alibaba PuHuiTi Medium';fill:#58b9a8;fill-opacity:1"
       aria-label="r">
      <path
         id="path143"
         style="font-size:5.4000001px;font-family:'Alibaba PuHuiTi Medium';fill:#58b9a8;fill-opacity:1"
         d="m -42.707951,25.939374 -0.0216,0.6048 h -0.0702 q -0.1404,0 -0.2754,0.027 -0.1296,0.027 -0.243001,0.1026 -0.1134,0.0702 -0.1998,0.1944 -0.0864,0.1188 -0.1242,0.3078 v 1.7334 h -0.675 v -2.916 h 0.675 v 0.5238 q 0.0648,-0.1782 0.162,-0.2916 0.0972,-0.1134 0.210601,-0.1782 0.1188,-0.0648 0.243,-0.0864 0.1296,-0.0216 0.2592,-0.0216 z" />
    </g>
    <g
       id="text43"
       style="font-size:5.4000001px;font-family:'Alibaba PuHuiTi Medium';fill:#58b9a8;fill-opacity:1"
       aria-label="e">
      <path
         id="path146"
         style="font-size:5.4000001px;font-family:'Alibaba PuHuiTi Medium';fill:#58b9a8;fill-opacity:1"
         d="m -38.323501,27.197574 q 0,0.108 -0.0108,0.2106 -0.0054,0.0972 -0.0162,0.1728 l -1.911601,0.1242 q 0.0108,0.3672 0.2052,0.54 0.1944,0.1728 0.631801,0.1728 0.1296,0 0.2646,-0.0162 0.1404,-0.0162 0.2646,-0.0432 0.1296,-0.0324 0.2376,-0.0648 0.108,-0.0378 0.1836,-0.0756 v 0.5508 q -0.1296,0.0756 -0.4212,0.135 -0.2916,0.0594 -0.648,0.0594 -0.334801,0 -0.594001,-0.0702 -0.2592,-0.0702 -0.4374,-0.243 -0.1782,-0.1728 -0.2754,-0.4644 -0.0918,-0.2916 -0.0918,-0.7344 0,-0.4428 0.0918,-0.7344 0.0972,-0.2916 0.2754,-0.4644 0.1782,-0.1728 0.4374,-0.243 0.2592,-0.0702 0.594001,-0.0702 0.378,0 0.6156,0.1026 0.2376,0.0972 0.3726,0.27 0.135,0.1728 0.1836,0.3996 0.0486,0.2268 0.0486,0.486 z m -0.6264,-0.0702 q 0,-0.135 -0.0216,-0.2538 -0.0162,-0.1242 -0.081,-0.216 -0.0648,-0.0918 -0.1836,-0.1458 -0.1134,-0.054 -0.3078,-0.054 -0.205201,0 -0.340201,0.0486 -0.135,0.0486 -0.216,0.1458 -0.081,0.0972 -0.1188,0.243 -0.0378,0.1404 -0.0432,0.3294 z" />
    </g>
    <g
       id="text45"
       style="font-size:5.4000001px;font-family:'Alibaba PuHuiTi Medium';fill:#58b9a8;fill-opacity:1" />
    <g
       id="text47"
       style="font-size:5.4000001px;font-family:'Alibaba PuHuiTi Medium';fill:#58b9a8;fill-opacity:1"
       aria-label="Y">
      <path
         id="path150"
         style="font-size:5.4000001px;font-family:'Alibaba PuHuiTi Medium';fill:#58b9a8;fill-opacity:1"
         d="m -32.193176,27.381174 -1.3446,-2.2194 h 0.8262 l 0.8748,1.566 h 0.0324 l 0.8856,-1.566 h 0.7938 l -1.3554,2.2086 v 1.539 h -0.7128 z" />
    </g>
    <g
       id="text49"
       style="font-size:5.4000001px;font-family:'Alibaba PuHuiTi Medium';fill:#58b9a8;fill-opacity:1"
       aria-label="o">
      <path
         id="path153"
         style="font-size:5.4000001px;font-family:'Alibaba PuHuiTi Medium';fill:#58b9a8;fill-opacity:1"
         d="m -27.4314,28.963374 q -0.3348,0 -0.594,-0.0702 -0.2592,-0.0702 -0.4374,-0.243 -0.1782,-0.1728 -0.2754,-0.4644 -0.0918,-0.2916 -0.0918,-0.7344 0,-0.4428 0.0918,-0.7344 0.0972,-0.2916 0.2754,-0.4644 0.1782,-0.1728 0.4374,-0.243 0.2592,-0.0702 0.594,-0.0702 0.3348,0 0.594,0.0702 0.2646,0.0702 0.4428,0.243 0.1782,0.1728 0.27,0.4644 0.0972,0.2916 0.0972,0.7344 0,0.4428 -0.0972,0.7344 -0.0918,0.2916 -0.27,0.4644 -0.1782,0.1728 -0.4428,0.243 -0.2592,0.0702 -0.594,0.0702 z m 0,-0.5238 q 0.2052,0 0.3402,-0.0486 0.135,-0.0486 0.216,-0.162 0.081,-0.1134 0.1134,-0.3024 0.0378,-0.189 0.0378,-0.4752 0,-0.2808 -0.0378,-0.4698 -0.0324,-0.1944 -0.1188,-0.3078 -0.081,-0.1188 -0.216,-0.1674 -0.135,-0.0486 -0.3348,-0.0486 -0.1998,0 -0.3348,0.0486 -0.135,0.0486 -0.216,0.1674 -0.081,0.1134 -0.1188,0.3078 -0.0324,0.189 -0.0324,0.4698 0,0.2862 0.0324,0.4752 0.0378,0.189 0.1188,0.3024 0.0864,0.1134 0.2214,0.162 0.135,0.0486 0.3294,0.0486 z" />
    </g>
    <g
       id="text51"
       style="font-size:5.4000001px;font-family:'Alibaba PuHuiTi Medium';fill:#58b9a8;fill-opacity:1"
       aria-label="u">
      <path
         id="path156"
         style="font-size:5.4000001px;font-family:'Alibaba PuHuiTi Medium';fill:#58b9a8;fill-opacity:1"
         d="m -21.7766,25.993374 v 2.916 h -0.6048 l -0.0594,-0.3726 q -0.1242,0.2376 -0.3618,0.3348 -0.2322,0.0918 -0.54,0.0918 -0.2754,0 -0.4644,-0.0648 -0.1836,-0.0648 -0.3024,-0.189 -0.1134,-0.1242 -0.162,-0.3024 -0.0486,-0.1836 -0.0486,-0.4104 v -2.0034 h 0.675 v 1.809 q 0,0.1512 0.0216,0.2646 0.0216,0.1134 0.0756,0.189 0.0594,0.0702 0.1566,0.108 0.0972,0.0378 0.2538,0.0378 0.243,0 0.4212,-0.0918 0.1782,-0.0918 0.2646,-0.3726 v -1.944 z" />
    </g>
    <g
       id="text53"
       style="font-size:5.4000001px;font-family:'Alibaba PuHuiTi Medium';fill:#58b9a8;fill-opacity:1" />
    <g
       id="text55"
       style="font-size:5.4000001px;font-family:'Alibaba PuHuiTi Medium';fill:#58b9a8;fill-opacity:1"
       aria-label="J">
      <path
         id="path160"
         style="font-size:5.4000001px;font-family:'Alibaba PuHuiTi Medium';fill:#58b9a8;fill-opacity:1"
         d="m -17.030699,29.913774 q -0.0918,0 -0.2052,-0.0108 -0.1134,-0.0054 -0.2052,-0.0216 v -0.5724 q 0.0756,0.0108 0.162,0.0216 0.0864,0.0108 0.1944,0.0108 0.3078,0 0.4266,-0.1836 0.1188,-0.1836 0.1188,-0.4968 v -3.4992 h 0.702 v 3.5424 q 0,0.594 -0.3078,0.9018 -0.3078,0.3078 -0.8856,0.3078 z" />
    </g>
    <g
       id="text57"
       style="font-size:5.4000001px;font-family:'Alibaba PuHuiTi Medium';fill:#58b9a8;fill-opacity:1"
       aria-label="u">
      <path
         id="path163"
         style="font-size:5.4000001px;font-family:'Alibaba PuHuiTi Medium';fill:#58b9a8;fill-opacity:1"
         d="m -11.3516,25.993374 v 2.916 h -0.6048 l -0.0594,-0.3726 q -0.1242,0.2376 -0.3618,0.3348 -0.2322,0.0918 -0.54,0.0918 -0.2754,0 -0.4644,-0.0648 -0.1836,-0.0648 -0.3024,-0.189 -0.1134,-0.1242 -0.162,-0.3024 -0.0486,-0.1836 -0.0486,-0.4104 v -2.0034 h 0.675 v 1.809 q 0,0.1512 0.0216,0.2646 0.0216,0.1134 0.0756,0.189 0.0594,0.0702 0.1566,0.108 0.0972,0.0378 0.2538,0.0378 0.243,0 0.4212,-0.0918 0.1782,-0.0918 0.2646,-0.3726 v -1.944 z" />
    </g>
    <g
       id="text59"
       style="font-size:5.4000001px;font-family:'Alibaba PuHuiTi Medium';fill:#58b9a8;fill-opacity:1"
       aria-label="s">
      <path
         id="path166"
         style="font-size:5.4000001px;font-family:'Alibaba PuHuiTi Medium';fill:#58b9a8;fill-opacity:1"
         d="m -8.8213746,28.941774 q -0.243,0 -0.486,-0.027 -0.243,-0.0216 -0.4158,-0.0648 v -0.567 q 0.189,0.0594 0.4266,0.0972 0.243,0.0324 0.4428,0.0324 0.2808,0 0.4158,-0.0702 0.135,-0.0702 0.135,-0.2754 0,-0.1026 -0.027,-0.1674 -0.0216,-0.0702 -0.0864,-0.1188 -0.0648,-0.0486 -0.1836,-0.0864 -0.1134,-0.0378 -0.297,-0.081 -0.2376,-0.054 -0.3888,-0.1242 -0.1512,-0.0702 -0.243,-0.162 -0.0864,-0.0972 -0.1242,-0.2268 -0.0324,-0.135 -0.0324,-0.3186 0,-0.3942 0.2646,-0.6156 0.2646,-0.2268 0.8586,-0.2268 0.2322,0 0.4482,0.027 0.2214,0.027 0.3294,0.0702 l -0.0324,0.5292 q -0.1188,-0.0432 -0.324,-0.0756 -0.1998,-0.0324 -0.3996,-0.0324 -0.2808,0 -0.3996,0.0702 -0.1134,0.0648 -0.1134,0.2484 0,0.0864 0.0216,0.1404 0.0216,0.054 0.081,0.0918 0.0594,0.0378 0.162,0.0702 0.108,0.0324 0.2808,0.0756 0.243,0.0594 0.405,0.1296 0.162,0.0702 0.2592,0.1728 0.0972,0.0972 0.135,0.243 0.0432,0.1404 0.0432,0.3456 0,0.4914 -0.3024,0.6966 -0.3024,0.1998 -0.8532,0.1998 z" />
    </g>
    <g
       id="text61"
       style="font-size:5.4000001px;font-family:'Alibaba PuHuiTi Medium';fill:#58b9a8;fill-opacity:1"
       aria-label="t">
      <path
         id="path169"
         style="font-size:5.4000001px;font-family:'Alibaba PuHuiTi Medium';fill:#58b9a8;fill-opacity:1"
         d="m -5.2435502,26.533374 v 1.404 q 0,0.1404 0.0108,0.2322 0.0162,0.0918 0.054,0.1458 0.0432,0.054 0.1134,0.0756 0.0702,0.0162 0.1836,0.0162 0.0756,0 0.1404,-0.0054 0.0648,-0.0054 0.1242,-0.0216 v 0.5346 q -0.0864,0.0108 -0.1782,0.0162 -0.0918,0.0108 -0.1836,0.0108 -0.2592,0 -0.4428,-0.0378 -0.1782,-0.0432 -0.2916,-0.1458 -0.108,-0.108 -0.1566,-0.2916 -0.0486,-0.189 -0.0486,-0.4752 v -1.458 h -0.405 v -0.54 h 0.405 v -0.6912 h 0.675 v 0.6912 h 0.6426 v 0.54 z" />
    </g>
    <g
       id="text63"
       style="font-size:5.4000001px;font-family:'Alibaba PuHuiTi Medium';fill:#58b9a8;fill-opacity:1" />
    <g
       id="text65"
       style="font-size:5.4000001px;font-family:'Alibaba PuHuiTi Medium';fill:#58b9a8;fill-opacity:1"
       aria-label="E">
      <path
         id="path173"
         style="font-size:5.4000001px;font-family:'Alibaba PuHuiTi Medium';fill:#58b9a8;fill-opacity:1"
         d="m 2.668775,28.288374 v 0.621 h -2.3166 v -3.7476 h 2.2194 v 0.6156 h -1.512 v 0.9072 h 1.404 v 0.5886 h -1.404 v 1.0152 z" />
    </g>
    <g
       id="text67"
       style="font-size:5.4000001px;font-family:'Alibaba PuHuiTi Medium';fill:#58b9a8;fill-opacity:1"
       aria-label="x">
      <path
         id="path176"
         style="font-size:5.4000001px;font-family:'Alibaba PuHuiTi Medium';fill:#58b9a8;fill-opacity:1"
         d="m 5.1794249,27.418974 -0.945,-1.4256 h 0.783 l 0.621,1.0206 h 0.0324 l 0.621,-1.0206 H 7.064025 l -0.9450001,1.4202 0.9990001,1.4958 H 6.3242249 l -0.6588,-1.0746 h -0.0324 l -0.675,1.0746 h -0.7884 z" />
    </g>
    <g
       id="text69"
       style="font-size:5.4000001px;font-family:'Alibaba PuHuiTi Medium';fill:#58b9a8;fill-opacity:1"
       aria-label="p">
      <path
         id="path179"
         style="font-size:5.4000001px;font-family:'Alibaba PuHuiTi Medium';fill:#58b9a8;fill-opacity:1"
         d="m 10.156525,25.939374 q 0.3564,0 0.5832,0.108 0.2322,0.108 0.3618,0.3078 0.135,0.1944 0.1836,0.4752 0.0486,0.2808 0.0486,0.621 0,0.3078 -0.0486,0.5832 -0.0486,0.2754 -0.1836,0.486 -0.1296,0.2052 -0.3618,0.324 -0.2268,0.1188 -0.5832,0.1188 -0.4050002,0 -0.6102002,-0.1242 -0.1998,-0.1296 -0.2916,-0.3456 v 1.4958 h -0.675 v -3.996 h 0.675 v 0.4104 q 0.0918,-0.1944 0.297,-0.3294 0.2052,-0.135 0.6048002,-0.135 z m -0.1836002,2.5002 q 0.2214002,0 0.3510002,-0.081 0.135,-0.081 0.1998,-0.216 0.0702,-0.135 0.0918,-0.3132 0.0216,-0.1836 0.0216,-0.378 0,-0.2106 -0.0216,-0.3888 -0.0216,-0.1836 -0.0918,-0.3186 -0.0702,-0.135 -0.2052,-0.2106 -0.1296,-0.0756 -0.3456002,-0.0756 -0.2214,0 -0.3672,0.0702 -0.1458,0.0648 -0.2322,0.1944 -0.0864,0.1242 -0.1242,0.3132 -0.0324,0.1836 -0.0324,0.4158 0,0.2268 0.0324,0.4104 0.0378,0.1782 0.1242,0.3078 0.0864,0.1296 0.2322,0.1998 0.1458,0.0702 0.3672,0.0702 z" />
    </g>
    <g
       id="text71"
       style="font-size:5.4000001px;font-family:'Alibaba PuHuiTi Medium';fill:#58b9a8;fill-opacity:1"
       aria-label="e">
      <path
         id="path182"
         style="font-size:5.4000001px;font-family:'Alibaba PuHuiTi Medium';fill:#58b9a8;fill-opacity:1"
         d="m 15.67025,27.197574 q 0,0.108 -0.0108,0.2106 -0.0054,0.0972 -0.0162,0.1728 l -1.9116,0.1242 q 0.0108,0.3672 0.2052,0.54 0.1944,0.1728 0.6318,0.1728 0.1296,0 0.2646,-0.0162 0.1404,-0.0162 0.2646,-0.0432 0.1296,-0.0324 0.2376,-0.0648 0.108,-0.0378 0.1836,-0.0756 v 0.5508 q -0.1296,0.0756 -0.4212,0.135 -0.2916,0.0594 -0.648,0.0594 -0.3348,0 -0.594,-0.0702 -0.2592,-0.0702 -0.4374,-0.243 -0.1782,-0.1728 -0.2754,-0.4644 -0.0918,-0.2916 -0.0918,-0.7344 0,-0.4428 0.0918,-0.7344 0.0972,-0.2916 0.2754,-0.4644 0.1782,-0.1728 0.4374,-0.243 0.2592,-0.0702 0.594,-0.0702 0.378,0 0.6156,0.1026 0.2376,0.0972 0.3726,0.27 0.135,0.1728 0.1836,0.3996 0.0486,0.2268 0.0486,0.486 z m -0.6264,-0.0702 q 0,-0.135 -0.0216,-0.2538 -0.0162,-0.1242 -0.081,-0.216 -0.0648,-0.0918 -0.1836,-0.1458 -0.1134,-0.054 -0.3078,-0.054 -0.2052,0 -0.3402,0.0486 -0.135,0.0486 -0.216,0.1458 -0.081,0.0972 -0.1188,0.243 -0.0378,0.1404 -0.0432,0.3294 z" />
    </g>
    <g
       id="text73"
       style="font-size:5.4000001px;font-family:'Alibaba PuHuiTi Medium';fill:#58b9a8;fill-opacity:1"
       aria-label="c">
      <path
         id="path185"
         style="font-size:5.4000001px;font-family:'Alibaba PuHuiTi Medium';fill:#58b9a8;fill-opacity:1"
         d="m 18.666899,28.963374 q -0.3348,0 -0.5994,-0.0702 -0.2592,-0.0702 -0.4428,-0.243 -0.1782,-0.1728 -0.2754,-0.4644 -0.0918,-0.2916 -0.0918,-0.7344 0,-0.4428 0.0918,-0.7344 0.0972,-0.2916 0.2754,-0.4644 0.1836,-0.1728 0.4428,-0.243 0.2646,-0.0702 0.5994,-0.0702 0.2268,0 0.4212,0.027 0.1998,0.027 0.3348,0.0702 v 0.5778 q -0.1566,-0.0594 -0.324,-0.0864 -0.1674,-0.027 -0.3618,-0.027 -0.2106,0 -0.3618,0.0486 -0.1458,0.0432 -0.243,0.1512 -0.0918,0.108 -0.135,0.2916 -0.0432,0.1836 -0.0432,0.4644 0,0.2754 0.0432,0.459 0.0432,0.1782 0.135,0.2862 0.0972,0.108 0.2484,0.1512 0.1512,0.0432 0.3672,0.0432 0.1836,0 0.3618,-0.027 0.1782,-0.027 0.3348,-0.0864 v 0.5724 q -0.0648,0.0216 -0.1566,0.0432 -0.0864,0.0162 -0.1944,0.0324 -0.1026,0.0162 -0.216,0.0216 -0.108,0.0108 -0.2106,0.0108 z" />
    </g>
    <g
       id="text75"
       style="font-size:5.4000001px;font-family:'Alibaba PuHuiTi Medium';fill:#58b9a8;fill-opacity:1"
       aria-label="t">
      <path
         id="path188"
         style="font-size:5.4000001px;font-family:'Alibaba PuHuiTi Medium';fill:#58b9a8;fill-opacity:1"
         d="m 21.922075,26.533374 v 1.404 q 0,0.1404 0.0108,0.2322 0.0162,0.0918 0.054,0.1458 0.0432,0.054 0.1134,0.0756 0.0702,0.0162 0.1836,0.0162 0.0756,0 0.1404,-0.0054 0.0648,-0.0054 0.1242,-0.0216 v 0.5346 q -0.0864,0.0108 -0.1782,0.0162 -0.0918,0.0108 -0.1836,0.0108 -0.2592,0 -0.4428,-0.0378 -0.1782,-0.0432 -0.2916,-0.1458 -0.108,-0.108 -0.1566,-0.2916 -0.0486,-0.189 -0.0486,-0.4752 v -1.458 h -0.405 v -0.54 h 0.405 v -0.6912 h 0.675 v 0.6912 h 0.6426 v 0.54 z" />
    </g>
    <g
       id="text77"
       style="font-size:5.4000001px;font-family:'Alibaba PuHuiTi Medium';fill:#58b9a8;fill-opacity:1"
       aria-label="i">
      <path
         id="path191"
         style="font-size:5.4000001px;font-family:'Alibaba PuHuiTi Medium';fill:#58b9a8;fill-opacity:1"
         d="m 24.384124,25.545174 q -0.1134,0 -0.189,-0.0108 -0.0702,-0.0108 -0.1188,-0.0486 -0.0432,-0.0432 -0.0594,-0.1134 -0.0162,-0.0702 -0.0162,-0.1944 0,-0.1242 0.0162,-0.1944 0.0162,-0.0756 0.0594,-0.108 0.0486,-0.0378 0.1188,-0.0486 0.0756,-0.0108 0.189,-0.0108 0.1134,0 0.1836,0.0108 0.0756,0.0108 0.1188,0.0486 0.0486,0.0324 0.0648,0.108 0.0162,0.0702 0.0162,0.1944 0,0.1242 -0.0162,0.1944 -0.0162,0.0702 -0.0648,0.1134 -0.0432,0.0378 -0.1188,0.0486 -0.0702,0.0108 -0.1836,0.0108 z m -0.3402,0.4482 h 0.675 v 2.916 h -0.675 z" />
    </g>
    <g
       id="text79"
       style="font-size:5.4000001px;font-family:'Alibaba PuHuiTi Medium';fill:#58b9a8;fill-opacity:1"
       aria-label="n">
      <path
         id="path194"
         style="font-size:5.4000001px;font-family:'Alibaba PuHuiTi Medium';fill:#58b9a8;fill-opacity:1"
         d="m 28.166475,25.939374 q 0.2754,0 0.459,0.0648 0.189,0.0648 0.3024,0.189 0.1134,0.1242 0.162,0.3078 0.0486,0.1782 0.0486,0.4104 v 1.998 h -0.675 v -1.809 q 0,-0.3078 -0.0972,-0.4536 -0.0972,-0.1458 -0.405,-0.1458 -0.2592,0 -0.4428,0.0972 -0.1782,0.0918 -0.27,0.3672 v 1.944 h -0.675 v -2.916 h 0.675 v 0.3672 q 0.1242,-0.2268 0.3672,-0.324 0.2484,-0.0972 0.5508,-0.0972 z" />
    </g>
    <g
       id="text81"
       style="font-size:5.4000001px;font-family:'Alibaba PuHuiTi Medium';fill:#58b9a8;fill-opacity:1"
       aria-label="g">
      <path
         id="path197"
         style="font-size:5.4000001px;font-family:'Alibaba PuHuiTi Medium';fill:#58b9a8;fill-opacity:1"
         d="m 33.641051,25.993374 v 2.6946 q 0,0.3024 -0.0864,0.54 -0.081,0.243 -0.2646,0.4104 -0.1836,0.1728 -0.4806,0.2592 -0.2916,0.0918 -0.7182,0.0918 -0.1944,0 -0.4104,-0.0216 -0.216,-0.0216 -0.378,-0.0486 v -0.5454 q 0.1674,0.0432 0.3618,0.0594 0.1998,0.0216 0.3888,0.0216 0.4806,0 0.6966,-0.1782 0.2214,-0.1782 0.2214,-0.621 v -0.2052 q -0.0918,0.216 -0.297,0.3402 -0.1998,0.1188 -0.6048,0.1188 -0.3564,0 -0.5886,-0.108 -0.2322,-0.108 -0.3672,-0.3024 -0.135,-0.1944 -0.189,-0.4644 -0.0486,-0.2754 -0.0486,-0.6102 0,-0.3024 0.0486,-0.5724 0.054,-0.27 0.189,-0.4698 0.135,-0.2052 0.3672,-0.324 0.2322,-0.1188 0.5886,-0.1188 0.2052,0 0.3564,0.0378 0.1512,0.0324 0.2592,0.0972 0.108,0.0594 0.1728,0.1512 0.0702,0.0864 0.1134,0.1944 v -0.4266 z m -1.3986,2.4084 q 0.2322,0 0.378,-0.0648 0.1512,-0.0648 0.2322,-0.189 0.0864,-0.1296 0.1134,-0.3078 0.0324,-0.1836 0.0324,-0.4158 0,-0.2214 -0.0324,-0.3996 -0.027,-0.1782 -0.1134,-0.3024 -0.081,-0.1296 -0.2322,-0.1944 -0.1458,-0.0702 -0.378,-0.0702 -0.2268,0 -0.3564,0.081 -0.1296,0.081 -0.1998,0.216 -0.0702,0.1296 -0.0918,0.3078 -0.0162,0.1728 -0.0162,0.3618 0,0.2052 0.0216,0.3834 0.0216,0.1728 0.0918,0.3078 0.0702,0.135 0.1998,0.2106 0.1296,0.0756 0.351,0.0756 z" />
    </g>
    <g
       id="text83"
       style="font-size:5.4000001px;font-family:'Alibaba PuHuiTi Medium';fill:#58b9a8;fill-opacity:1" />
    <g
       id="text85"
       style="font-size:5.4000001px;font-family:'Alibaba PuHuiTi Medium';fill:#58b9a8;fill-opacity:1"
       aria-label="B">
      <path
         id="path201"
         style="font-size:5.4000001px;font-family:'Alibaba PuHuiTi Medium';fill:#58b9a8;fill-opacity:1"
         d="m 38.78655,25.161774 h 1.2042 q 0.3942,0 0.6534,0.0648 0.2646,0.0594 0.4158,0.1836 0.1566,0.1242 0.216,0.3132 0.0648,0.189 0.0648,0.4428 0,0.2916 -0.1242,0.4914 -0.1188,0.1944 -0.4212,0.2862 v 0.0216 q 0.351,0.081 0.5022,0.3024 0.1566,0.216 0.1566,0.5616 0,0.2538 -0.0648,0.459 -0.0594,0.1998 -0.216,0.3402 -0.1566,0.135 -0.4212,0.2106 -0.2592,0.0702 -0.6534,0.0702 h -1.3122 z m 1.0152,1.5768 q 0.2214,0 0.378,-0.0216 0.162,-0.0216 0.2646,-0.0756 0.1026,-0.0594 0.1512,-0.1566 0.0486,-0.0972 0.0486,-0.2538 0,-0.1674 -0.0486,-0.2646 -0.0486,-0.0972 -0.1512,-0.1458 -0.0972,-0.054 -0.2592,-0.0702 -0.1566,-0.0162 -0.3834,-0.0162 h -0.3078 v 1.0044 z m 0.1134,1.593 q 0.243,0 0.3996,-0.0216 0.162,-0.0216 0.2538,-0.081 0.0972,-0.0648 0.135,-0.1674 0.0378,-0.1026 0.0378,-0.2646 0,-0.1458 -0.0378,-0.2484 -0.0378,-0.1026 -0.135,-0.162 -0.0918,-0.0648 -0.2538,-0.0918 -0.1566,-0.0324 -0.3996,-0.0324 h -0.4212 v 1.0692 z" />
    </g>
    <g
       id="text87"
       style="font-size:5.4000001px;font-family:'Alibaba PuHuiTi Medium';fill:#58b9a8;fill-opacity:1"
       aria-label="r">
      <path
         id="path204"
         style="font-size:5.4000001px;font-family:'Alibaba PuHuiTi Medium';fill:#58b9a8;fill-opacity:1"
         d="m 44.923301,25.939374 -0.0216,0.6048 h -0.0702 q -0.1404,0 -0.2754,0.027 -0.1296,0.027 -0.243,0.1026 -0.1134,0.0702 -0.1998,0.1944 -0.0864,0.1188 -0.1242,0.3078 v 1.7334 h -0.675 v -2.916 h 0.675 v 0.5238 q 0.0648,-0.1782 0.162,-0.2916 0.0972,-0.1134 0.2106,-0.1782 0.1188,-0.0648 0.243,-0.0864 0.1296,-0.0216 0.2592,-0.0216 z" />
    </g>
    <g
       id="text89"
       style="font-size:5.4000001px;font-family:'Alibaba PuHuiTi Medium';fill:#58b9a8;fill-opacity:1"
       aria-label="i">
      <path
         id="path207"
         style="font-size:5.4000001px;font-family:'Alibaba PuHuiTi Medium';fill:#58b9a8;fill-opacity:1"
         d="m 47.174751,25.545174 q -0.1134,0 -0.189,-0.0108 -0.0702,-0.0108 -0.1188,-0.0486 -0.0432,-0.0432 -0.0594,-0.1134 -0.0162,-0.0702 -0.0162,-0.1944 0,-0.1242 0.0162,-0.1944 0.0162,-0.0756 0.0594,-0.108 0.0486,-0.0378 0.1188,-0.0486 0.0756,-0.0108 0.189,-0.0108 0.1134,0 0.1836,0.0108 0.0756,0.0108 0.1188,0.0486 0.0486,0.0324 0.0648,0.108 0.0162,0.0702 0.0162,0.1944 0,0.1242 -0.0162,0.1944 -0.0162,0.0702 -0.0648,0.1134 -0.0432,0.0378 -0.1188,0.0486 -0.0702,0.0108 -0.1836,0.0108 z m -0.3402,0.4482 h 0.675 v 2.916 h -0.675 z" />
    </g>
    <g
       id="text91"
       style="font-size:5.4000001px;font-family:'Alibaba PuHuiTi Medium';fill:#58b9a8;fill-opacity:1"
       aria-label="c">
      <path
         id="path210"
         style="font-size:5.4000001px;font-family:'Alibaba PuHuiTi Medium';fill:#58b9a8;fill-opacity:1"
         d="m 50.6169,28.963374 q -0.3348,0 -0.5994,-0.0702 -0.2592,-0.0702 -0.4428,-0.243 -0.1782,-0.1728 -0.2754,-0.4644 -0.0918,-0.2916 -0.0918,-0.7344 0,-0.4428 0.0918,-0.7344 0.0972,-0.2916 0.2754,-0.4644 0.1836,-0.1728 0.4428,-0.243 0.2646,-0.0702 0.5994,-0.0702 0.2268,0 0.4212,0.027 0.1998,0.027 0.3348,0.0702 v 0.5778 q -0.1566,-0.0594 -0.324,-0.0864 -0.1674,-0.027 -0.3618,-0.027 -0.2106,0 -0.3618,0.0486 -0.1458,0.0432 -0.243,0.1512 -0.0918,0.108 -0.135,0.2916 -0.0432,0.1836 -0.0432,0.4644 0,0.2754 0.0432,0.459 0.0432,0.1782 0.135,0.2862 0.0972,0.108 0.2484,0.1512 0.1512,0.0432 0.3672,0.0432 0.1836,0 0.3618,-0.027 0.1782,-0.027 0.3348,-0.0864 v 0.5724 q -0.0648,0.0216 -0.1566,0.0432 -0.0864,0.0162 -0.1944,0.0324 -0.1026,0.0162 -0.216,0.0216 -0.108,0.0108 -0.2106,0.0108 z" />
    </g>
    <g
       id="text93"
       style="font-size:5.4000001px;font-family:'Alibaba PuHuiTi Medium';fill:#58b9a8;fill-opacity:1"
       aria-label="k">
      <path
         id="path213"
         style="font-size:5.4000001px;font-family:'Alibaba PuHuiTi Medium';fill:#58b9a8;fill-opacity:1"
         d="m 55.681074,28.909374 h -0.8316 l -0.8856,-1.2798 h -0.1404 v 1.2798 h -0.675 v -4.104 h 0.675 v 2.3004 h 0.1674 l 0.8424,-1.1124 h 0.7992 l -1.1016,1.3554 z" />
    </g>
    <g
       id="text95"
       style="font-size:5.4000001px;font-family:'Alibaba PuHuiTi Medium';fill:#58b9a8;fill-opacity:1"
       aria-label="l">
      <path
         id="path216"
         style="font-size:5.4000001px;font-family:'Alibaba PuHuiTi Medium';fill:#58b9a8;fill-opacity:1"
         d="m 58.385452,28.941774 q -0.432,0 -0.6102,-0.1674 -0.1728,-0.1728 -0.1728,-0.5454 v -3.4236 h 0.675 v 3.2616 q 0,0.2052 0.054,0.27 0.0594,0.0648 0.1998,0.0648 0.0918,0 0.1782,-0.0216 v 0.5292 q -0.1458,0.0324 -0.324,0.0324 z" />
    </g>
    <g
       id="text97"
       style="font-size:5.4000001px;font-family:'Alibaba PuHuiTi Medium';fill:#58b9a8;fill-opacity:1"
       aria-label="a">
      <path
         id="path219"
         style="font-size:5.4000001px;font-family:'Alibaba PuHuiTi Medium';fill:#58b9a8;fill-opacity:1"
         d="m 61.747276,25.939374 q 0.3564,0 0.5994,0.0648 0.243,0.0648 0.3888,0.1836 0.1512,0.1188 0.2106,0.297 0.0648,0.1728 0.0648,0.3888 v 2.0358 h -0.5994 l -0.0702,-0.3726 q -0.108,0.189 -0.3672,0.3078 -0.2538,0.1188 -0.6048,0.1188 -0.999,0 -0.999,-0.8802 0,-0.513 0.3078,-0.7182 0.3078,-0.2106 0.8748,-0.2106 h 0.783 v -0.1296 q 0,-0.1296 -0.027,-0.2268 -0.027,-0.0972 -0.1026,-0.162 -0.0702,-0.0648 -0.1998,-0.0972 -0.1296,-0.0324 -0.3294,-0.0324 -0.1566,0 -0.3132,0.0162 -0.1566,0.0162 -0.3132,0.0432 v -0.5778 q 0.1674,-0.027 0.351,-0.0378 0.189,-0.0108 0.3456,-0.0108 z m -0.2322,2.4948 q 0.3078,0 0.5184,-0.1134 0.2106,-0.1134 0.3024,-0.3024 v -0.3834 h -0.6912 q -0.3186,0 -0.4644,0.0864 -0.1404,0.081 -0.1404,0.3402 0,0.189 0.108,0.2808 0.1134,0.0918 0.3672,0.0918 z" />
    </g>
    <g
       id="text99"
       style="font-size:5.4000001px;font-family:'Alibaba PuHuiTi Medium';fill:#58b9a8;fill-opacity:1"
       aria-label="y">
      <path
         id="path222"
         style="font-size:5.4000001px;font-family:'Alibaba PuHuiTi Medium';fill:#58b9a8;fill-opacity:1"
         d="m 64.632552,29.406174 q 0.3726,0 0.54,-0.1296 0.1728,-0.1242 0.2538,-0.3834 l -1.1502,-2.8998 h 0.7452 l 0.7614,2.1924 h 0.0324 l 0.7128,-2.1924 h 0.7128 l -0.999,2.7054 q -0.1296,0.351 -0.2646,0.594 -0.1296,0.2484 -0.3078,0.3996 -0.1782,0.1566 -0.4266,0.2268 -0.2484,0.0702 -0.6102,0.0702 z" />
    </g>
    <g
       id="text101"
       style="font-size:5.4000001px;font-family:'Alibaba PuHuiTi Medium';fill:#58b9a8;fill-opacity:1"
       aria-label="e">
      <path
         id="path225"
         style="font-size:5.4000001px;font-family:'Alibaba PuHuiTi Medium';fill:#58b9a8;fill-opacity:1"
         d="m 71.17025,27.197574 q 0,0.108 -0.0108,0.2106 -0.0054,0.0972 -0.0162,0.1728 l -1.9116,0.1242 q 0.0108,0.3672 0.2052,0.54 0.1944,0.1728 0.6318,0.1728 0.1296,0 0.2646,-0.0162 0.1404,-0.0162 0.2646,-0.0432 0.1296,-0.0324 0.2376,-0.0648 0.108,-0.0378 0.1836,-0.0756 v 0.5508 q -0.1296,0.0756 -0.4212,0.135 -0.2916,0.0594 -0.648,0.0594 -0.3348,0 -0.594,-0.0702 -0.2592,-0.0702 -0.4374,-0.243 -0.1782,-0.1728 -0.2754,-0.4644 -0.0918,-0.2916 -0.0918,-0.7344 0,-0.4428 0.0918,-0.7344 0.0972,-0.2916 0.2754,-0.4644 0.1782,-0.1728 0.4374,-0.243 0.2592,-0.0702 0.594,-0.0702 0.378,0 0.6156,0.1026 0.2376,0.0972 0.3726,0.27 0.135,0.1728 0.1836,0.3996 0.0486,0.2268 0.0486,0.486 z m -0.6264,-0.0702 q 0,-0.135 -0.0216,-0.2538 -0.0162,-0.1242 -0.081,-0.216 -0.0648,-0.0918 -0.1836,-0.1458 -0.1134,-0.054 -0.3078,-0.054 -0.2052,0 -0.3402,0.0486 -0.135,0.0486 -0.216,0.1458 -0.081,0.0972 -0.1188,0.243 -0.0378,0.1404 -0.0432,0.3294 z" />
    </g>
    <g
       id="text103"
       style="font-size:5.4000001px;font-family:'Alibaba PuHuiTi Medium';fill:#58b9a8;fill-opacity:1"
       aria-label="r">
      <path
         id="path228"
         style="font-size:5.4000001px;font-family:'Alibaba PuHuiTi Medium';fill:#58b9a8;fill-opacity:1"
         d="m 74.523303,25.939374 -0.0216,0.6048 h -0.0702 q -0.1404,0 -0.2754,0.027 -0.1296,0.027 -0.243,0.1026 -0.1134,0.0702 -0.1998,0.1944 -0.0864,0.1188 -0.1242,0.3078 v 1.7334 h -0.675 v -2.916 h 0.675 v 0.5238 q 0.0648,-0.1782 0.162,-0.2916 0.0972,-0.1134 0.2106,-0.1782 0.1188,-0.0648 0.243,-0.0864 0.1296,-0.0216 0.2592,-0.0216 z" />
    </g>
  </g>
</svg>
