<?xml version="1.0" encoding="UTF-8"?>
<svg width="34px" height="32px" viewBox="0 0 34 32" version="1.1" xmlns="http://www.w3.org/2000/svg" xmlns:xlink="http://www.w3.org/1999/xlink">
    <title>icon_review</title>
    <g id="页面-1" stroke="none" stroke-width="1" fill="none" fill-rule="evenodd">
        <g id="1商户详情-动态" transform="translate(-599.000000, -1231.000000)" fill="#000000" fill-rule="nonzero">
            <g id="编组-8" transform="translate(30.000000, 787.000000)">
                <g id="编组-4" transform="translate(569.000000, 443.000000)">
                    <g id="编组" transform="translate(0.000000, 1.000000)">
                        <path d="M28.9,27.5943165 L23.2333333,27.5943165 C23.0444444,27.5943165 22.9185185,27.6570309 22.7925926,27.7824596 L19.6444444,30.9181774 C18.1962963,32.3606075 15.8037037,32.3606075 14.2925926,30.9181774 L11.1444444,27.7824596 C11.0185185,27.6570309 10.8925926,27.5943165 10.7037037,27.5943165 L5.03703704,27.5943165 C2.26666667,27.5943165 0,25.3365997 0,22.5771681 L0,5.01714846 C0,2.25771681 2.26666667,0 5.03703704,0 L28.962963,0 C31.7333333,0 34,2.25771681 34,5.01714846 L34,22.5771681 C33.937037,25.3365997 31.6703704,27.5943165 28.9,27.5943165 Z M28.9,25.0857423 C30.2851852,25.0857423 31.4185185,23.9568839 31.4185185,22.5771681 L31.4185185,5.01714846 C31.4185185,3.63743263 30.2851852,2.50857423 28.9,2.50857423 L4.97407407,2.50857423 C3.58888889,2.50857423 2.45555556,3.63743263 2.45555556,5.01714846 L2.45555556,22.5771681 C2.45555556,23.9568839 3.58888889,25.0857423 4.97407407,25.0857423 L10.6407407,25.0857423 C11.4592593,25.0857423 12.2777778,25.3993141 12.8444444,26.0264576 L15.9925926,29.1621754 C16.4962963,29.6638902 17.2518519,29.6638902 17.7555556,29.1621754 L20.9037037,26.0264576 C21.4703704,25.4620284 22.2888889,25.0857423 23.1074074,25.0857423 L28.9,25.0857423 Z M9.38148148,11.9157276 C10.4518519,11.9157276 11.2703704,12.7310142 11.2703704,13.7971583 L11.2703704,15.0514454 C11.2703704,16.1175894 10.4518519,16.932876 9.38148148,16.932876 C8.31111111,16.932876 7.49259259,16.1175894 7.49259259,15.0514454 L7.49259259,13.7971583 C7.49259259,12.7310142 8.31111111,11.9157276 9.38148148,11.9157276 Z M16.937037,11.9157276 C18.0074074,11.9157276 18.8259259,12.7310142 18.8259259,13.7971583 L18.8259259,15.0514454 C18.8259259,16.1175894 18.0074074,16.932876 16.937037,16.932876 C15.8666667,16.932876 15.0481481,16.1175894 15.0481481,15.0514454 L15.0481481,13.7971583 C15.0481481,12.7310142 15.8666667,11.9157276 16.937037,11.9157276 Z M24.4925926,11.9157276 C25.562963,11.9157276 26.3814815,12.7310142 26.3814815,13.7971583 L26.3814815,15.0514454 C26.3814815,16.1175894 25.562963,16.932876 24.4925926,16.932876 C23.4222222,16.932876 22.6037037,16.1175894 22.6037037,15.0514454 L22.6037037,13.7971583 C22.6037037,12.7310142 23.4222222,11.9157276 24.4925926,11.9157276 Z" id="形状"></path>
                    </g>
                </g>
            </g>
        </g>
    </g>
</svg>