<?xml version="1.0" encoding="UTF-8"?>
<svg width="74px" height="57px" viewBox="0 0 74 57" version="1.1" xmlns="http://www.w3.org/2000/svg" xmlns:xlink="http://www.w3.org/1999/xlink">
    <title>my_icon_2</title>
    <g id="页面-1" stroke="none" stroke-width="1" fill="none" fill-rule="evenodd">
        <g id="5我" transform="translate(-242.000000, -647.000000)" fill-rule="nonzero">
            <g id="编组-2备份" transform="translate(228.000000, 647.000000)">
                <g id="编组" transform="translate(14.000000, 0.000000)">
                    <path d="M37.6446923,56 C33.966943,56 30.389954,55.2742148 27.0288799,53.8371602 C23.7829602,52.4509105 20.86811,50.469517 18.363498,47.9437846 C15.858886,45.4180523 13.8940611,42.4786223 12.5194033,39.2053312 C11.0943654,35.8159145 10.3746493,32.2087622 10.3746493,28.5 C10.3746493,24.7912378 11.0943654,21.1840855 12.5194033,17.7946688 C13.8940611,14.5213777 15.858886,11.5819477 18.363498,9.05621536 C20.86811,6.53048298 23.7829602,4.54908947 27.0288799,3.1628398 C30.389954,1.72578517 33.966943,1 37.6446923,1 C41.3224416,1 44.8994306,1.72578517 48.2605048,3.1628398 C51.5064244,4.54908947 54.4212746,6.53048298 56.9258866,9.05621536 C59.4304986,11.5819477 61.3953236,14.5213777 62.7699813,17.7946688 C64.1950192,21.1840855 64.9147353,24.7912378 64.9147353,28.5 C64.9147353,32.2087622 64.1950192,35.8159145 62.7699813,39.2053312 C61.3953236,42.4786223 59.4304986,45.4180523 56.9258866,47.9437846 C54.4212746,50.469517 51.5064244,52.4509105 48.2605048,53.8371602 C44.8922334,55.266957 41.3224416,56 37.6446923,56 Z M37.6446923,4.68698865 C24.6250281,4.68698865 14.0308071,15.3705463 14.0308071,28.5 C14.0308071,41.6294537 24.6250281,52.3130113 37.6446923,52.3130113 C50.6643565,52.3130113 61.2585775,41.6294537 61.2585775,28.5 C61.2585775,15.3705463 50.6643565,4.68698865 37.6446923,4.68698865 Z" id="形状" stroke="#333333" stroke-width="0.96" fill="#333333"></path>
                    <path d="M20.0908167,44.0753497 C18.0540201,44.0753497 16.125181,43.9882555 14.3186936,43.8068092 C6.47378808,43.0157034 1.91798518,40.584323 1.11910031,36.7666931 C0.665679165,34.5893376 1.507747,32.3248878 3.63090949,30.0386646 C5.40141109,28.1298496 8.03557201,26.2282924 11.4542235,24.392056 L13.174345,27.6508314 C10.1515373,29.2693323 7.77647422,30.9676696 6.30825338,32.5571391 C5.44459406,33.493402 4.46578017,34.8506202 4.70328648,36.0046186 C4.92639847,37.0860385 6.20749312,37.8916601 7.24388431,38.3779361 C9.02158307,39.2125891 11.5909695,39.8149908 14.6785516,40.1270784 C16.3698844,40.3012668 18.1907662,40.3811032 20.105211,40.3811032 C25.740588,40.3811032 32.2252301,39.6480602 38.8898012,38.2400369 C47.8142808,36.3529955 55.9542699,33.4788862 61.8127589,30.1475323 C64.5188914,28.6088678 66.6276596,27.0121404 67.9231486,25.5315387 C68.6788505,24.6678543 69.5281155,23.412246 69.3050035,22.3308261 C68.9955256,20.8574822 66.3685618,19.0139879 59.9055112,18.273687 L60.3157494,14.6084719 C67.764811,15.4648984 72.1118963,17.8745051 72.8819925,21.5760095 C73.6736802,25.3863816 70.4709436,29.4652943 63.604852,33.3627606 C57.436885,36.868303 48.9226436,39.8803114 39.6383059,41.8471892 C32.7362285,43.3205331 25.9924887,44.0753497 20.0908167,44.0753497 L20.0908167,44.0753497 Z" id="路径" stroke="#333333" stroke-width="0.96" fill="#333333"></path>
                    <path d="M52.0030285,24.2178675 C51.0673975,24.2178675 50.2685127,23.4993402 50.1821467,22.5340459 C49.4408392,14.1730008 43.6039416,13.4544735 43.3592381,13.4254421 L43.3736325,13.4254421 L43.6903075,9.74571127 C43.935011,9.76748482 46.1445394,9.99973608 48.4908139,11.6762998 C50.6355679,13.2077065 53.3057146,16.2777778 53.8311074,22.2001847 C53.9246705,23.216284 53.1761657,24.1089997 52.1685632,24.2033518 C52.118183,24.2106097 52.0606058,24.2178675 52.0030285,24.2178675 L52.0030285,24.2178675 Z" id="路径" fill="#00CC66"></path>
                </g>
            </g>
        </g>
    </g>
</svg>