<?xml version="1.0" encoding="UTF-8"?>
<svg width="32px" height="32px" viewBox="0 0 32 32" version="1.1" xmlns="http://www.w3.org/2000/svg" xmlns:xlink="http://www.w3.org/1999/xlink">
    <title>iocn_share</title>
    <g id="页面-1" stroke="none" stroke-width="1" fill="none" fill-rule="evenodd">
        <g id="1商户详情-动态" transform="translate(-60.000000, -1231.000000)" fill="#000000" fill-rule="nonzero">
            <g id="编组-8" transform="translate(30.000000, 787.000000)">
                <g id="编组-6" transform="translate(30.000000, 443.000000)">
                    <g id="编组" transform="translate(0.000000, 1.000000)">
                        <path d="M25.6842105,32 L6.31578946,32 C2.8295986,31.995361 0.00463899716,29.1704014 0,25.6842105 L0,6.31578946 C0.00463899716,2.8295986 2.8295986,0.00463899716 6.31578946,0 L16,0 C16.6976228,0 17.2631579,0.565535055 17.2631579,1.2631579 C17.2631579,1.96078074 16.6976228,2.5263158 16,2.5263158 L6.31578946,2.5263158 C4.22484223,2.53094694 2.53094694,4.22484223 2.5263158,6.31578946 L2.5263158,25.6842105 C2.53094694,27.7751578 4.22484223,29.4690531 6.31578946,29.4736842 L25.6842105,29.4736842 C27.7751578,29.4690531 29.4690531,27.7751578 29.4736842,25.6842105 L29.4736842,16 C29.4736842,15.3023772 30.0392193,14.7368421 30.7368421,14.7368421 C31.4344649,14.7368421 32,15.3023772 32,16 L32,25.6842105 C31.995361,29.1704014 29.1704014,31.995361 25.6842105,32 L25.6842105,32 Z" id="路径"></path>
                        <path d="M15.5789474,17.6842105 C15.2442338,17.6829986 14.9234963,17.5498622 14.6863158,17.3136842 C14.4476867,17.0779504 14.3133802,16.7564841 14.3133802,16.4210526 C14.3133802,16.0856212 14.4476867,15.7641549 14.6863158,15.5284211 L29.8442105,0.370526316 C30.3419112,-0.0932360022 31.1174901,-0.0795518292 31.598521,0.401479049 C32.0795518,0.882509928 32.093236,1.65808884 31.6294737,2.15578948 L16.4715789,17.3136842 C16.2343984,17.5498622 15.9136609,17.6829986 15.5789474,17.6842105 L15.5789474,17.6842105 Z" id="路径"></path>
                        <path d="M30.7368421,2.5263158 L24,2.5263158 C23.3023772,2.5263158 22.7368421,1.96078074 22.7368421,1.2631579 C22.7368421,0.565535062 23.3023772,2.05683424e-15 24,2.05683424e-15 L30.7368421,2.05683424e-15 C31.4344649,2.05683424e-15 32,0.565535065 32,1.2631579 C32,1.96078073 31.4344649,2.5263158 30.7368421,2.5263158 L30.7368421,2.5263158 Z" id="路径"></path>
                        <path d="M30.7368421,9.2631579 C30.0392193,9.2631579 29.4736842,8.69762284 29.4736842,8 L29.4736842,1.2631579 C29.4736842,0.565535055 30.0392193,1.02841712e-15 30.7368421,1.02841712e-15 C31.4344649,1.02841712e-15 32,0.565535055 32,1.2631579 L32,8 C32,8.69762284 31.4344649,9.2631579 30.7368421,9.2631579 L30.7368421,9.2631579 Z" id="路径"></path>
                    </g>
                </g>
            </g>
        </g>
    </g>
</svg>